# xmcd
#
# Track frame offsets:
#	150
#	17122
#	33256
#	52482
#	75639
#	99549
#	116131
#	123704
#	149718
#	169264
#	192244
#
# Disc length: 2877 seconds
# Revision: 0
# Processed by: cddbd v1.5.2PL0 Copyright (c) Steve Scherf et al.
# Submitted via: dBpowerAMP V12.0
#
DISCID=a50b3b0b
DTITLE=Sakis Dovolis - Cross the Line
DYEAR=2018
DGENRE=Blues Rock
TTITLE0=All Over You
TTITLE1=Come On
TTITLE2=Everything
TTITLE3=I'm No Angel
TTITLE4=Cross the Line
TTITLE5=Burn It Down
TTITLE6=Shades of Blue
TTITLE7=Show Me Your Love
TTITLE8=Devil's Road
TTITLE9=Nasty Dogs and Funky Kings
TTITLE10=Legacy (Dedicated to Stevie Ray Vaughan)
EXTD=
EXTT0=
EXTT1=
EXTT2=
EXTT3=
EXTT4=
EXTT5=
EXTT6=
EXTT7=
EXTT8=
EXTT9=
EXTT10=
PLAYORDER=
